<svg width="579" height="600" viewBox="0 0 579 600" fill="none" xmlns="http://www.w3.org/2000/svg" preserveAspectRatio="none">
<rect width="343" height="600" fill="#D17979"/>
<path fill-rule="evenodd" clip-rule="evenodd" d="M579 600L561.37 583.5C543.741 566.5 508.482 533.5 508.482 500C508.482 466.5 543.741 433.5 539.333 400C534.926 366.5 490.852 333.5 490.852 300C490.852 266.5 534.926 233.5 526.111 200C517.296 166.5 455.593 133.5 442.37 100C429.148 66.5 464.407 33.5 482.037 16.5L499.667 -6.93554e-06L341 0L341 16.5C341 33.5 341 66.5 341 100C341 133.5 341 166.5 341 200C341 233.5 341 266.5 341 300C341 333.5 341 366.5 341 400C341 433.5 341 466.5 341 500C341 533.5 341 566.5 341 583.5L341 600L579 600Z" fill="#D17979"/>
</svg>
