<svg width="360" height="138" viewBox="0 0 360 138" fill="none" xmlns="http://www.w3.org/2000/svg" preserveAspectRatio="none">
<path fill-rule="evenodd" clip-rule="evenodd" d="M360 -3.05176e-05L350.1 10.2222C339.9 20.4444 320.1 40.8889 300 40.8889C279.9 40.8889 260.1 20.4444 240 23C219.9 25.5555 200.1 51.1111 180 51.1111C159.9 51.1111 140.1 25.5555 120 30.6667C99.9 35.7778 80.1 71.5556 60 79.2222C39.9 86.8889 20.1 66.4445 9.89999 56.2222L-8.0429e-06 46L0 138L9.89999 138C20.1 138 39.9 138 60 138C80.1 138 99.9 138 120 138C140.1 138 159.9 138 180 138C200.1 138 219.9 138 240 138C260.1 138 279.9 138 300 138C320.1 138 339.9 138 350.1 138L360 138L360 -3.05176e-05Z" fill="#D17979"/>
</svg>
